<?xml version="1.0" encoding="utf-8"?>
<!-- Generator: Adobe Illustrator 24.3.0, SVG Export Plug-In . SVG Version: 6.00 Build 0)  -->
<svg version="1.1" id="Ebene_1" xmlns="http://www.w3.org/2000/svg" xmlns:xlink="http://www.w3.org/1999/xlink" x="0px" y="0px"
	 viewBox="0 0 130 130" style="enable-background:new 0 0 130 130;" xml:space="preserve">
<style type="text/css">
	.st0{clip-path:url(#SVGID_2_);fill:#327C5E;}
	.st1{clip-path:url(#SVGID_2_);fill:#3C3C3B;}
</style>
<g>
	<defs>
		<rect id="SVGID_1_" x="27.86" y="4.61" width="74.28" height="118.78"/>
	</defs>
	<clipPath id="SVGID_2_">
		<use xlink:href="#SVGID_1_"  style="overflow:visible;"/>
	</clipPath>
	<path class="st0" d="M95.74,47.89L78.8,64.83c-1.9,1.89-4.42,2.94-7.1,2.94H47.77v-14.3c3.15-1.98,6.63-2.93,10.19-2.93
		c16.95,0,16.97-0.36,18.19,0.85c1.76,1.73,0.57,4.89-2.04,4.89H61.56c-1.9,0-1.9,2.87,0,2.87h12.56c2.12,0,3.96-1.17,4.95-2.89
		c0.48-0.19-0.26,0.43,12.46-12.29c1.04-1.03,2.64-1.26,3.74-0.53C96.88,44.52,96.97,46.67,95.74,47.89 M44.9,70.64H33.42V49.11
		H44.9V70.64z M67.87,37.86c2.45,1.49,10.57,6.72,13.4,12.32l-1.66,1.66c-0.72-2.56-3.01-4.16-5.5-4.16
		c-18.15,0-16.63-0.03-18.1,0.09C59.55,43.13,65.78,39.12,67.87,37.86 M49.21,7.48h4.31c6.59,0,12.03,4.96,12.81,11.34l-10.5-8.16
		c-1.49-1.17-3.26,1.1-1.76,2.27l9.62,7.48h-1.56C55.01,20.4,49.21,14.6,49.21,7.48 M82.23,10.35h4.31c0,7.12-5.8,12.92-12.92,12.92
		h-1.56l9.62-7.48c1.5-1.17-0.27-3.43-1.76-2.27l-10.5,8.16C70.2,15.31,75.64,10.35,82.23,10.35 M96.87,41.06
		c-2.25-1.5-5.35-1.13-7.37,0.89l-6.12,6.12c-3.54-6.05-11.59-11.21-14.08-12.7v-9.23h4.31c8.71,0,15.79-7.08,15.79-15.79V8.91
		c0-0.79-0.64-1.44-1.44-1.44h-5.74c-5.87,0-11,3.23-13.71,8C66.44,9.17,60.5,4.61,53.52,4.61h-5.74c-0.79,0-1.44,0.64-1.44,1.43
		v1.44c0,8.71,7.08,15.79,15.79,15.79h4.31v12.1c-2.53,1.52-10.9,6.88-14.29,13.1c-1.94,0.53-3,0.99-4.37,1.69v-2.49
		c0-0.79-0.64-1.44-1.44-1.44H31.98c-0.79,0-1.44,0.64-1.44,1.44v24.4c0,0.79,0.64,1.44,1.44,1.44h14.35c0.79,0,1.44-0.64,1.44-1.44
		v-1.44h23.93c3.45,0,6.69-1.34,9.12-3.78l16.94-16.94C100.34,47.35,99.91,43.09,96.87,41.06"/>
	<path class="st1" d="M100.38,117.36h-4.21v-3.88H94.4v9.7h1.76v-4.3h4.21v4.3h1.76v-9.7h-1.76V117.36z M90.83,123.33
		c0.33-0.04,0.62-0.1,0.88-0.17c0.26-0.07,0.49-0.14,0.68-0.22c0.19-0.07,0.34-0.15,0.46-0.22l-0.48-1.44
		c-0.21,0.11-0.52,0.23-0.91,0.36s-0.9,0.19-1.53,0.19c-0.52,0-0.97-0.09-1.34-0.26c-0.37-0.17-0.68-0.42-0.92-0.73
		c-0.24-0.31-0.42-0.68-0.54-1.11c-0.12-0.43-0.17-0.9-0.17-1.41c0-0.58,0.08-1.09,0.22-1.53c0.15-0.44,0.36-0.8,0.62-1.09
		s0.58-0.51,0.94-0.65c0.36-0.14,0.76-0.22,1.18-0.22c0.49,0,0.94,0.06,1.35,0.19c0.42,0.13,0.73,0.26,0.96,0.4l0.52-1.44
		c-0.07-0.04-0.18-0.1-0.34-0.18c-0.16-0.08-0.36-0.16-0.6-0.24c-0.24-0.07-0.53-0.14-0.85-0.2c-0.33-0.06-0.69-0.09-1.09-0.09
		c-0.66,0-1.28,0.11-1.86,0.34c-0.58,0.22-1.08,0.55-1.51,0.99c-0.43,0.43-0.77,0.96-1.01,1.59c-0.25,0.62-0.37,1.34-0.37,2.16
		c0,0.81,0.11,1.53,0.32,2.16c0.22,0.62,0.52,1.15,0.92,1.59c0.4,0.43,0.89,0.76,1.47,0.99c0.58,0.22,1.23,0.34,1.96,0.34
		C90.15,123.39,90.5,123.37,90.83,123.33 M81.38,123.18h1.76v-9.7h-1.76V123.18z M75.67,121.66v-8.18H73.9v9.7h6.13v-1.53H75.67z
		 M68.7,114.99c0.29,0.05,0.54,0.14,0.75,0.26c0.21,0.12,0.37,0.28,0.48,0.49s0.17,0.46,0.17,0.76c0,0.32-0.06,0.58-0.17,0.78
		s-0.28,0.37-0.5,0.49c-0.22,0.12-0.49,0.21-0.82,0.25c-0.33,0.05-0.71,0.07-1.13,0.07h-0.77v-3.14c0.32-0.03,0.66-0.04,1.04-0.04
		C68.09,114.91,68.41,114.93,68.7,114.99 M66.32,113.43c-0.49,0.03-0.94,0.1-1.37,0.19v9.56h1.76v-3.67h0.85h0.27
		c0.09,0,0.21,0,0.34-0.01c0.18,0.22,0.37,0.48,0.57,0.76c0.2,0.29,0.41,0.59,0.62,0.91c0.21,0.32,0.42,0.65,0.62,0.99
		c0.21,0.34,0.4,0.68,0.57,1.01h1.97c-0.17-0.36-0.36-0.73-0.57-1.11c-0.21-0.38-0.44-0.75-0.67-1.11c-0.23-0.36-0.46-0.69-0.69-1
		c-0.22-0.31-0.43-0.57-0.6-0.78c1.3-0.47,1.95-1.36,1.95-2.67c0-1.06-0.37-1.84-1.11-2.35c-0.74-0.51-1.81-0.77-3.21-0.77
		C67.24,113.38,66.8,113.4,66.32,113.43 M60.97,112.19c0.19-0.17,0.28-0.4,0.28-0.69s-0.09-0.52-0.28-0.69
		c-0.19-0.17-0.41-0.26-0.66-0.26c-0.25,0-0.47,0.09-0.67,0.26c-0.19,0.17-0.29,0.4-0.29,0.69s0.09,0.52,0.29,0.69
		c0.19,0.17,0.41,0.25,0.67,0.25C60.56,112.44,60.78,112.36,60.97,112.19 M58.08,112.19c0.19-0.17,0.29-0.4,0.29-0.69
		s-0.1-0.52-0.29-0.69c-0.19-0.17-0.41-0.26-0.67-0.26c-0.25,0-0.47,0.09-0.66,0.26c-0.19,0.17-0.28,0.4-0.28,0.69
		s0.09,0.52,0.28,0.69c0.19,0.17,0.41,0.25,0.66,0.25C57.66,112.44,57.89,112.36,58.08,112.19 M60.56,123.11
		c0.49-0.19,0.88-0.46,1.2-0.81c0.31-0.35,0.55-0.75,0.7-1.22c0.15-0.47,0.23-0.98,0.23-1.54v-6.06h-1.78v5.89
		c0,0.44-0.05,0.81-0.15,1.13c-0.1,0.31-0.24,0.57-0.42,0.76c-0.18,0.2-0.4,0.34-0.65,0.43c-0.25,0.09-0.53,0.14-0.84,0.14
		s-0.59-0.05-0.83-0.14c-0.25-0.09-0.46-0.24-0.64-0.43s-0.32-0.45-0.42-0.76c-0.1-0.31-0.15-0.69-0.15-1.13v-5.89h-1.78v6.06
		c0,0.56,0.07,1.07,0.22,1.54c0.15,0.47,0.38,0.87,0.69,1.22c0.31,0.35,0.71,0.61,1.18,0.81c0.48,0.19,1.05,0.29,1.71,0.29
		C59.5,123.39,60.08,123.3,60.56,123.11 M46.02,113.48v1.53H49v8.18h1.78v-8.18h2.98v-1.53H46.02z M42.54,117.15
		c0.28,0.72,0.57,1.49,0.87,2.32h-3.19c0.3-0.83,0.58-1.6,0.86-2.31c0.28-0.71,0.52-1.31,0.74-1.81
		C42.01,115.83,42.26,116.43,42.54,117.15 M46.58,123.18c-0.36-1.04-0.71-1.99-1.04-2.87s-0.65-1.71-0.97-2.49
		c-0.31-0.78-0.62-1.53-0.93-2.24c-0.31-0.71-0.62-1.41-0.95-2.1H41c-0.33,0.69-0.64,1.39-0.95,2.1c-0.31,0.71-0.62,1.46-0.93,2.24
		c-0.31,0.78-0.63,1.62-0.96,2.49c-0.33,0.88-0.67,1.83-1.04,2.87h1.83c0.13-0.37,0.26-0.75,0.4-1.13c0.14-0.38,0.27-0.76,0.4-1.15
		h4.1c0.13,0.39,0.27,0.78,0.41,1.15c0.14,0.37,0.28,0.75,0.41,1.13H46.58z M35.89,123.18v-9.7h-1.75v6.44
		c-0.32-0.5-0.68-1.05-1.08-1.63s-0.83-1.16-1.26-1.74c-0.43-0.58-0.87-1.14-1.3-1.67c-0.43-0.54-0.83-1-1.2-1.39h-1.44v9.7h1.74
		v-6.94c0.39,0.47,0.81,0.99,1.24,1.57s0.86,1.18,1.28,1.81c0.42,0.62,0.83,1.24,1.22,1.85c0.39,0.61,0.75,1.18,1.06,1.71H35.89z"/>
	<path class="st1" d="M82.58,107.87c-0.18,0.25-0.43,0.37-0.75,0.37c-0.32,0-0.57-0.12-0.74-0.37c-0.18-0.25-0.27-0.62-0.27-1.11
		s0.09-0.87,0.27-1.11c0.18-0.25,0.42-0.37,0.74-0.37c0.32,0,0.57,0.12,0.75,0.37s0.27,0.62,0.27,1.11S82.76,107.63,82.58,107.87
		 M83.53,104.79c-0.43-0.45-1-0.68-1.7-0.68s-1.27,0.23-1.7,0.68c-0.43,0.45-0.65,1.11-0.65,1.97c0,0.42,0.06,0.8,0.18,1.13
		c0.12,0.33,0.28,0.61,0.48,0.83c0.21,0.22,0.45,0.39,0.74,0.51c0.29,0.12,0.61,0.18,0.95,0.18c0.7,0,1.27-0.23,1.7-0.69
		c0.43-0.46,0.65-1.11,0.65-1.96C84.18,105.9,83.96,105.25,83.53,104.79 M75.01,109.18h1.61l5.47-9.7h-1.61L75.01,109.18z
		 M76.04,103.03c-0.18,0.25-0.43,0.37-0.75,0.37c-0.32,0-0.57-0.12-0.74-0.37c-0.18-0.25-0.27-0.62-0.27-1.11
		c0-0.49,0.09-0.87,0.27-1.11c0.18-0.25,0.42-0.37,0.74-0.37c0.32,0,0.57,0.12,0.75,0.37c0.18,0.25,0.27,0.62,0.27,1.11
		C76.31,102.41,76.22,102.78,76.04,103.03 M76.99,99.95c-0.43-0.45-1-0.68-1.7-0.68c-0.7,0-1.27,0.23-1.7,0.68
		c-0.43,0.45-0.65,1.11-0.65,1.97c0,0.42,0.06,0.8,0.18,1.13c0.12,0.33,0.28,0.61,0.48,0.83c0.2,0.22,0.45,0.39,0.74,0.51
		c0.29,0.12,0.61,0.18,0.95,0.18c0.7,0,1.27-0.23,1.7-0.69s0.65-1.11,0.65-1.96C77.64,101.06,77.43,100.4,76.99,99.95 M66.58,105.74
		c-0.06,0.44-0.15,0.82-0.27,1.14c-0.13,0.32-0.29,0.58-0.5,0.76c-0.21,0.19-0.46,0.28-0.77,0.28s-0.57-0.09-0.78-0.28
		c-0.21-0.19-0.38-0.44-0.5-0.76c-0.13-0.32-0.21-0.7-0.27-1.14c-0.05-0.44-0.08-0.91-0.08-1.41c0-0.5,0.03-0.98,0.08-1.41
		c0.05-0.44,0.14-0.82,0.27-1.14c0.13-0.32,0.29-0.58,0.5-0.76c0.21-0.19,0.47-0.28,0.78-0.28s0.56,0.09,0.77,0.28
		c0.2,0.19,0.37,0.44,0.5,0.76c0.13,0.32,0.22,0.7,0.27,1.14c0.06,0.44,0.08,0.91,0.08,1.41C66.67,104.83,66.64,105.3,66.58,105.74
		 M67.52,100.57c-0.6-0.87-1.42-1.31-2.48-1.31c-0.52,0-0.99,0.11-1.41,0.34c-0.42,0.22-0.77,0.55-1.06,0.98
		c-0.29,0.43-0.52,0.96-0.67,1.59s-0.23,1.35-0.23,2.16c0,1.63,0.3,2.89,0.9,3.76c0.6,0.87,1.42,1.31,2.48,1.31
		c1.05,0,1.88-0.44,2.48-1.31c0.6-0.87,0.9-2.13,0.9-3.76C68.42,102.69,68.12,101.44,67.52,100.57 M58.63,105.74
		c-0.06,0.44-0.15,0.82-0.27,1.14c-0.13,0.32-0.29,0.58-0.5,0.76c-0.21,0.19-0.46,0.28-0.77,0.28s-0.57-0.09-0.78-0.28
		c-0.21-0.19-0.38-0.44-0.5-0.76c-0.13-0.32-0.22-0.7-0.27-1.14c-0.05-0.44-0.08-0.91-0.08-1.41c0-0.5,0.03-0.98,0.08-1.41
		c0.05-0.44,0.14-0.82,0.27-1.14c0.13-0.32,0.29-0.58,0.5-0.76c0.21-0.19,0.47-0.28,0.78-0.28s0.56,0.09,0.77,0.28
		c0.2,0.19,0.37,0.44,0.5,0.76c0.13,0.32,0.22,0.7,0.27,1.14c0.06,0.44,0.08,0.91,0.08,1.41C58.71,104.83,58.69,105.3,58.63,105.74
		 M59.57,100.57c-0.6-0.87-1.42-1.31-2.48-1.31c-0.52,0-0.99,0.11-1.41,0.34c-0.42,0.22-0.77,0.55-1.06,0.98
		c-0.29,0.43-0.52,0.96-0.67,1.59c-0.15,0.63-0.23,1.35-0.23,2.16c0,1.63,0.3,2.89,0.9,3.76c0.6,0.87,1.42,1.31,2.48,1.31
		c1.05,0,1.88-0.44,2.48-1.31c0.6-0.87,0.9-2.13,0.9-3.76C60.46,102.69,60.17,101.44,59.57,100.57 M46.94,102.78
		c0.36-0.12,0.72-0.28,1.11-0.46c0.38-0.19,0.7-0.38,0.95-0.57v7.43h1.69v-9.7H49.5c-0.42,0.46-0.9,0.85-1.45,1.19
		c-0.55,0.34-1.09,0.61-1.63,0.83L46.94,102.78z"/>
</g>
</svg>
