<?xml version="1.0" encoding="utf-8"?>
<!-- Generator: Adobe Illustrator 24.3.0, SVG Export Plug-In . SVG Version: 6.00 Build 0)  -->
<svg version="1.1" id="Ebene_1" xmlns="http://www.w3.org/2000/svg" xmlns:xlink="http://www.w3.org/1999/xlink" x="0px" y="0px"
	 viewBox="0 0 130 130" style="enable-background:new 0 0 130 130;" xml:space="preserve">
<style type="text/css">
	.st0{clip-path:url(#SVGID_2_);fill:#327C5E;}
	.st1{clip-path:url(#SVGID_2_);fill:none;stroke:#FFFFFF;stroke-width:0.7;stroke-miterlimit:10;}
	.st2{clip-path:url(#SVGID_2_);fill:#3C3C3B;}
</style>
<g>
	<defs>
		<rect id="SVGID_1_" x="11.44" y="4.97" width="107.13" height="118.06"/>
	</defs>
	<clipPath id="SVGID_2_">
		<use xlink:href="#SVGID_1_"  style="overflow:visible;"/>
	</clipPath>
	<path class="st0" d="M48.8,13.43c3.08,0,6.16-0.01,9.24,0c0.95,0,1.67-0.37,2.06-1.24c0.62-1.38-0.42-2.81-2.04-2.82
		c-6.14,0-12.28,0-18.41,0c-1.41,0-2.35,0.82-2.33,2.05c0.02,1.19,0.94,2,2.31,2C42.68,13.44,45.74,13.43,48.8,13.43 M56.16,17.53
		H41.41v8.32h14.75V17.53z M41.36,29.95v0.82c0,10.58,0,21.16,0,31.74c0,0.29,0,0.59,0.01,0.88c0.16,3.73,3.28,6.86,7,7.03
		c4.36,0.2,7.83-3.15,7.84-7.62c0.01-10.74,0-21.47,0-32.21v-0.64H41.36z M47.57,74.48c-0.7-0.16-1.4-0.29-2.09-0.5
		c-4.92-1.5-8.17-5.9-8.18-11.08c-0.01-14.99-0.01-29.98,0.01-44.97c0-0.57-0.14-0.85-0.67-1.11c-2.54-1.22-3.84-3.98-3.25-6.76
		c0.57-2.66,3.01-4.71,5.76-4.73c6.41-0.03,12.83-0.03,19.24,0c2.76,0.01,5.18,2.06,5.76,4.73c0.6,2.79-0.73,5.59-3.31,6.79
		c-0.51,0.24-0.61,0.51-0.61,1.01c0.01,14.99,0.01,29.98,0.01,44.97c0,5.7-3.78,10.31-9.35,11.45c-0.3,0.06-0.61,0.13-0.91,0.2
		H47.57z"/>
	<path class="st1" d="M48.8,13.43c3.08,0,6.16-0.01,9.24,0c0.95,0,1.67-0.37,2.06-1.24c0.62-1.38-0.42-2.81-2.04-2.82
		c-6.14,0-12.28,0-18.41,0c-1.41,0-2.35,0.82-2.33,2.05c0.02,1.19,0.94,2,2.31,2C42.68,13.44,45.74,13.43,48.8,13.43z M56.16,17.53
		H41.41v8.32h14.75V17.53z M41.36,29.95v0.82c0,10.58,0,21.16,0,31.74c0,0.29,0,0.59,0.01,0.88c0.16,3.73,3.28,6.86,7,7.03
		c4.36,0.2,7.83-3.15,7.84-7.62c0.01-10.74,0-21.47,0-32.21v-0.64H41.36z M47.57,74.48c-0.7-0.16-1.4-0.29-2.09-0.5
		c-4.92-1.5-8.17-5.9-8.18-11.08c-0.01-14.99-0.01-29.98,0.01-44.97c0-0.57-0.14-0.85-0.67-1.11c-2.54-1.22-3.84-3.98-3.25-6.76
		c0.57-2.66,3.01-4.71,5.76-4.73c6.41-0.03,12.83-0.03,19.24,0c2.76,0.01,5.18,2.06,5.76,4.73c0.6,2.79-0.73,5.59-3.31,6.79
		c-0.51,0.24-0.61,0.51-0.61,1.01c0.01,14.99,0.01,29.98,0.01,44.97c0,5.7-3.78,10.31-9.35,11.45c-0.3,0.06-0.61,0.13-0.91,0.2
		H47.57z"/>
	<path class="st0" d="M71.77,33.49c-2.79,3.64-3.11,10.18,1.4,14.61c4.49,4.4,10.94,3.97,14.45,1.25
		C82.34,44.06,77.05,38.77,71.77,33.49 M90.63,46.37c3.16-4.35,2.8-11.13-2.02-15.22c-4.68-3.98-10.96-3.06-13.83-0.63
		C80.06,35.79,85.33,41.07,90.63,46.37 M96.74,39.92c-0.01,8.56-7,15.53-15.56,15.52c-8.56-0.01-15.52-7.01-15.5-15.58
		c0.02-8.53,6.99-15.48,15.53-15.48C89.77,24.37,96.74,31.35,96.74,39.92"/>
	<path class="st1" d="M71.77,33.49c-2.79,3.64-3.11,10.18,1.4,14.61c4.49,4.4,10.94,3.97,14.45,1.25
		C82.34,44.06,77.05,38.77,71.77,33.49z M90.63,46.37c3.16-4.35,2.8-11.13-2.02-15.22c-4.68-3.98-10.96-3.06-13.83-0.63
		C80.06,35.79,85.33,41.07,90.63,46.37z M96.74,39.92c-0.01,8.56-7,15.53-15.56,15.52c-8.56-0.01-15.52-7.01-15.5-15.58
		c0.02-8.53,6.99-15.48,15.53-15.48C89.77,24.37,96.74,31.35,96.74,39.92z"/>
	<path class="st2" d="M112.48,122.82v-1.5h-4.8v-2.84h3.98v-1.47h-3.98v-2.39h4.47v-1.5h-6.23v9.7H112.48z M99.96,122.82v-4.23h3.88
		v-1.5h-3.88v-2.48h4.37v-1.5H98.2v9.7H99.96z M92.25,122.82v-4.23h3.88v-1.5h-3.88v-2.48h4.37v-1.5h-6.13v9.7H92.25z M88.18,115.77
		c-0.25-0.63-0.59-1.16-1.01-1.59c-0.42-0.43-0.92-0.75-1.49-0.97c-0.57-0.22-1.17-0.32-1.81-0.32c-0.64,0-1.24,0.11-1.81,0.32
		c-0.57,0.21-1.07,0.54-1.5,0.97c-0.43,0.43-0.78,0.96-1.03,1.59c-0.25,0.63-0.38,1.36-0.38,2.19c0,0.83,0.13,1.56,0.38,2.2
		s0.59,1.16,1.01,1.59c0.42,0.43,0.92,0.74,1.5,0.96c0.57,0.22,1.18,0.32,1.83,0.32s1.25-0.11,1.82-0.32
		c0.57-0.21,1.07-0.53,1.49-0.96c0.42-0.42,0.76-0.95,1.01-1.59c0.25-0.64,0.37-1.37,0.37-2.2
		C88.56,117.13,88.43,116.4,88.18,115.77 M81.18,116.52c0.13-0.43,0.32-0.8,0.57-1.11c0.25-0.31,0.55-0.55,0.9-0.71
		c0.35-0.17,0.76-0.25,1.2-0.25c0.44,0,0.83,0.08,1.19,0.25c0.35,0.17,0.65,0.4,0.9,0.71c0.25,0.3,0.44,0.67,0.57,1.11
		c0.13,0.43,0.2,0.92,0.2,1.45c0,0.53-0.07,1.01-0.2,1.45c-0.13,0.43-0.32,0.8-0.57,1.11c-0.25,0.3-0.55,0.54-0.9,0.71
		c-0.36,0.17-0.75,0.25-1.19,0.25c-0.45,0-0.85-0.08-1.2-0.25c-0.35-0.17-0.66-0.4-0.9-0.71c-0.25-0.3-0.44-0.67-0.57-1.11
		c-0.13-0.43-0.2-0.92-0.2-1.45C80.98,117.43,81.05,116.95,81.18,116.52 M70.79,113.12v1.53h2.98v8.18h1.78v-8.18h2.98v-1.53H70.79z
		 M65.01,121.3c-0.43-0.14-0.77-0.28-1.02-0.42l-0.52,1.44c0.11,0.07,0.26,0.14,0.45,0.22c0.19,0.08,0.41,0.16,0.67,0.23
		c0.26,0.08,0.55,0.14,0.88,0.19c0.33,0.05,0.7,0.08,1.1,0.08c1.19,0,2.1-0.24,2.72-0.72c0.62-0.48,0.93-1.16,0.93-2.04
		c0-0.46-0.07-0.85-0.2-1.17c-0.13-0.32-0.32-0.6-0.57-0.84c-0.25-0.24-0.55-0.44-0.91-0.62c-0.36-0.17-0.77-0.34-1.22-0.51
		c-0.26-0.09-0.5-0.19-0.72-0.29c-0.22-0.1-0.41-0.21-0.57-0.34c-0.16-0.12-0.29-0.26-0.38-0.41c-0.09-0.15-0.13-0.34-0.13-0.55
		c0-0.35,0.13-0.63,0.4-0.83c0.27-0.2,0.64-0.29,1.11-0.29c0.4,0,0.79,0.05,1.17,0.14c0.38,0.09,0.72,0.23,1.04,0.41l0.55-1.43
		c-0.27-0.16-0.64-0.31-1.11-0.44c-0.47-0.13-1.01-0.2-1.62-0.2c-1.05,0-1.87,0.25-2.48,0.75c-0.61,0.5-0.91,1.19-0.91,2.06
		c0,0.42,0.07,0.78,0.22,1.08c0.14,0.3,0.34,0.56,0.57,0.77c0.24,0.22,0.51,0.39,0.83,0.54c0.31,0.15,0.64,0.28,0.97,0.4
		c0.34,0.11,0.63,0.23,0.9,0.34c0.26,0.12,0.48,0.24,0.66,0.38c0.18,0.14,0.32,0.29,0.42,0.46s0.15,0.37,0.15,0.6
		c0,0.39-0.14,0.69-0.43,0.91c-0.29,0.22-0.75,0.32-1.39,0.32C65.95,121.51,65.44,121.44,65.01,121.3 M57.45,121.3
		c-0.43-0.14-0.77-0.28-1.02-0.42l-0.52,1.44c0.11,0.07,0.26,0.14,0.45,0.22c0.19,0.08,0.41,0.16,0.67,0.23
		c0.26,0.08,0.55,0.14,0.88,0.19c0.33,0.05,0.7,0.08,1.1,0.08c1.19,0,2.1-0.24,2.72-0.72c0.62-0.48,0.93-1.16,0.93-2.04
		c0-0.46-0.07-0.85-0.2-1.17c-0.13-0.32-0.32-0.6-0.57-0.84c-0.25-0.24-0.55-0.44-0.91-0.62c-0.36-0.17-0.77-0.34-1.23-0.51
		c-0.26-0.09-0.5-0.19-0.72-0.29c-0.22-0.1-0.41-0.21-0.57-0.34c-0.16-0.12-0.29-0.26-0.38-0.41c-0.09-0.15-0.13-0.34-0.13-0.55
		c0-0.35,0.13-0.63,0.4-0.83c0.27-0.2,0.64-0.29,1.11-0.29c0.4,0,0.79,0.05,1.17,0.14c0.38,0.09,0.73,0.23,1.04,0.41l0.55-1.43
		c-0.27-0.16-0.64-0.31-1.11-0.44c-0.47-0.13-1.01-0.2-1.62-0.2c-1.05,0-1.87,0.25-2.48,0.75c-0.61,0.5-0.91,1.19-0.91,2.06
		c0,0.42,0.07,0.78,0.22,1.08c0.14,0.3,0.34,0.56,0.57,0.77c0.24,0.22,0.51,0.39,0.83,0.54c0.31,0.15,0.64,0.28,0.97,0.4
		c0.34,0.11,0.63,0.23,0.9,0.34c0.26,0.12,0.48,0.24,0.67,0.38s0.32,0.29,0.42,0.46s0.15,0.37,0.15,0.6c0,0.39-0.14,0.69-0.43,0.91
		c-0.29,0.22-0.75,0.32-1.39,0.32C58.39,121.51,57.88,121.44,57.45,121.3 M52.93,114.62c0.42,0.12,0.76,0.26,1.04,0.43l0.53-1.44
		c-0.07-0.04-0.18-0.1-0.34-0.18c-0.16-0.08-0.37-0.16-0.62-0.24s-0.55-0.14-0.9-0.2c-0.35-0.06-0.75-0.09-1.2-0.09
		c-0.65,0-1.27,0.11-1.85,0.34c-0.58,0.22-1.08,0.55-1.51,0.99c-0.43,0.43-0.77,0.96-1.02,1.59c-0.25,0.62-0.37,1.34-0.37,2.16
		c0,0.81,0.11,1.53,0.34,2.16c0.22,0.62,0.54,1.15,0.95,1.58c0.41,0.43,0.9,0.76,1.48,0.98c0.58,0.22,1.22,0.34,1.92,0.34
		c0.76,0,1.42-0.06,2-0.17c0.58-0.11,0.99-0.21,1.23-0.31v-4.66h-1.76v3.49c-0.13,0.04-0.31,0.07-0.53,0.09
		c-0.22,0.02-0.49,0.04-0.8,0.04c-0.5,0-0.93-0.09-1.3-0.26c-0.37-0.17-0.68-0.41-0.92-0.72c-0.25-0.31-0.43-0.68-0.56-1.11
		c-0.13-0.43-0.19-0.91-0.19-1.43c0-1.1,0.26-1.96,0.79-2.58c0.53-0.62,1.29-0.93,2.29-0.93C52.08,114.45,52.52,114.51,52.93,114.62
		 M44.76,122.82v-9.7h-1.75v6.44c-0.32-0.5-0.68-1.05-1.08-1.63s-0.83-1.16-1.26-1.74c-0.43-0.58-0.87-1.14-1.29-1.67
		c-0.43-0.54-0.83-1-1.2-1.39h-1.44v9.7h1.74v-6.94c0.39,0.47,0.81,0.99,1.24,1.58c0.43,0.58,0.86,1.18,1.28,1.81
		s0.83,1.24,1.22,1.85s0.75,1.18,1.06,1.71H44.76z M32.35,122.74c0.49-0.19,0.88-0.46,1.2-0.81c0.31-0.35,0.55-0.75,0.7-1.22
		c0.15-0.47,0.23-0.98,0.23-1.54v-6.06H32.7v5.89c0,0.44-0.05,0.81-0.15,1.13c-0.1,0.31-0.24,0.57-0.42,0.76
		c-0.18,0.2-0.4,0.34-0.65,0.43c-0.25,0.09-0.53,0.14-0.84,0.14s-0.59-0.05-0.83-0.14c-0.25-0.09-0.46-0.24-0.64-0.43
		c-0.18-0.2-0.32-0.45-0.42-0.76c-0.1-0.31-0.15-0.69-0.15-1.13v-5.89h-1.78v6.06c0,0.56,0.08,1.07,0.22,1.54
		c0.15,0.47,0.38,0.87,0.69,1.22s0.71,0.61,1.18,0.81s1.05,0.29,1.71,0.29S31.86,122.94,32.35,122.74 M21.68,114.62
		c0.29,0.05,0.54,0.14,0.75,0.26c0.21,0.12,0.37,0.28,0.48,0.49c0.11,0.21,0.17,0.46,0.17,0.76c0,0.32-0.06,0.58-0.17,0.78
		c-0.11,0.21-0.28,0.37-0.5,0.49c-0.22,0.12-0.49,0.21-0.82,0.25c-0.33,0.05-0.71,0.07-1.13,0.07h-0.77v-3.14
		c0.32-0.03,0.66-0.04,1.04-0.04C21.07,114.55,21.39,114.57,21.68,114.62 M19.3,113.07c-0.49,0.03-0.94,0.1-1.37,0.19v9.56h1.76
		v-3.67h0.85h0.27c0.09,0,0.2,0,0.34-0.01c0.18,0.22,0.37,0.48,0.57,0.76c0.2,0.29,0.41,0.59,0.62,0.91
		c0.21,0.32,0.42,0.65,0.62,0.99c0.2,0.34,0.4,0.68,0.57,1.01h1.97c-0.17-0.36-0.36-0.74-0.57-1.11s-0.44-0.75-0.67-1.11
		c-0.23-0.36-0.46-0.69-0.69-1c-0.22-0.31-0.42-0.57-0.6-0.78c1.3-0.47,1.95-1.36,1.95-2.67c0-1.06-0.37-1.84-1.11-2.35
		c-0.74-0.51-1.81-0.77-3.21-0.77C20.22,113.02,19.78,113.04,19.3,113.07"/>
	<path class="st2" d="M114.8,104.76h3.77v-1.55h-3.77V104.76z M113.83,108.82v-1.5h-4.8v-2.84h3.98v-1.47h-3.98v-2.39h4.47v-1.5
		h-6.23v9.7H113.83z M103.18,108.82h1.76v-9.7h-1.76V108.82z M98.08,108.82c0.7-1.51,1.38-3.09,2.02-4.75
		c0.65-1.65,1.25-3.3,1.83-4.96h-1.89c-0.21,0.65-0.44,1.32-0.67,2s-0.47,1.35-0.71,2.02c-0.24,0.66-0.47,1.3-0.71,1.91
		s-0.46,1.17-0.67,1.69c-0.22-0.51-0.45-1.08-0.69-1.69c-0.23-0.62-0.47-1.25-0.7-1.91c-0.23-0.66-0.47-1.33-0.7-2.01
		c-0.23-0.68-0.46-1.35-0.69-2h-1.95c0.56,1.65,1.16,3.3,1.81,4.96c0.65,1.65,1.32,3.23,2.03,4.75H98.08z M88.53,100.62
		c0.29,0.05,0.54,0.14,0.75,0.26c0.21,0.12,0.37,0.28,0.48,0.49s0.17,0.46,0.17,0.76c0,0.32-0.06,0.58-0.17,0.78
		s-0.28,0.37-0.5,0.49c-0.22,0.12-0.49,0.21-0.82,0.25c-0.33,0.05-0.71,0.07-1.13,0.07h-0.77v-3.14c0.32-0.03,0.66-0.04,1.04-0.04
		C87.93,100.55,88.24,100.57,88.53,100.62 M86.15,99.07c-0.49,0.03-0.94,0.1-1.37,0.19v9.56h1.76v-3.67h0.85h0.27
		c0.09,0,0.21,0,0.34-0.01c0.18,0.22,0.37,0.48,0.57,0.76c0.2,0.29,0.41,0.59,0.62,0.91c0.21,0.32,0.42,0.65,0.62,0.99
		c0.21,0.34,0.4,0.68,0.57,1.01h1.97c-0.17-0.36-0.36-0.74-0.57-1.11c-0.22-0.38-0.44-0.75-0.67-1.11c-0.23-0.36-0.46-0.69-0.69-1
		c-0.22-0.31-0.43-0.57-0.6-0.78c1.3-0.47,1.95-1.36,1.95-2.67c0-1.06-0.37-1.84-1.11-2.35c-0.74-0.51-1.81-0.77-3.21-0.77
		C87.07,99.02,86.64,99.04,86.15,99.07 M83.14,108.82v-1.5h-4.8v-2.84h3.98v-1.47h-3.98v-2.39h4.47v-1.5h-6.23v9.7H83.14z
		 M69.82,107.3c-0.43-0.14-0.77-0.28-1.02-0.42l-0.52,1.44c0.11,0.07,0.26,0.14,0.45,0.22c0.19,0.08,0.41,0.16,0.67,0.23
		c0.26,0.08,0.55,0.14,0.88,0.19c0.33,0.05,0.7,0.08,1.1,0.08c1.19,0,2.1-0.24,2.72-0.72c0.62-0.48,0.93-1.16,0.93-2.04
		c0-0.46-0.07-0.85-0.2-1.17s-0.32-0.6-0.57-0.84s-0.55-0.44-0.91-0.62c-0.36-0.17-0.77-0.34-1.22-0.51
		c-0.26-0.09-0.5-0.19-0.72-0.29c-0.22-0.1-0.41-0.21-0.57-0.34s-0.29-0.26-0.38-0.41c-0.09-0.15-0.13-0.34-0.13-0.55
		c0-0.35,0.13-0.63,0.4-0.83s0.64-0.29,1.11-0.29c0.4,0,0.79,0.05,1.17,0.14c0.38,0.09,0.73,0.23,1.04,0.41l0.55-1.43
		c-0.27-0.16-0.64-0.31-1.11-0.44c-0.47-0.13-1.01-0.2-1.62-0.2c-1.04,0-1.87,0.25-2.48,0.75c-0.61,0.5-0.91,1.19-0.91,2.06
		c0,0.42,0.07,0.78,0.22,1.08c0.14,0.3,0.34,0.56,0.57,0.77c0.24,0.22,0.51,0.39,0.83,0.54c0.31,0.15,0.64,0.28,0.97,0.4
		c0.34,0.11,0.64,0.23,0.9,0.34c0.26,0.12,0.48,0.24,0.67,0.38s0.32,0.29,0.42,0.46c0.1,0.17,0.15,0.37,0.15,0.6
		c0,0.39-0.15,0.69-0.43,0.91c-0.29,0.22-0.75,0.32-1.39,0.32C70.76,107.51,70.24,107.44,69.82,107.3 M66.69,108.82v-9.7h-1.75v6.44
		c-0.32-0.5-0.68-1.05-1.08-1.63s-0.83-1.16-1.26-1.74c-0.43-0.58-0.87-1.14-1.3-1.67c-0.43-0.54-0.83-1-1.2-1.39h-1.44v9.7h1.74
		v-6.94c0.39,0.47,0.81,0.99,1.24,1.58c0.43,0.58,0.86,1.18,1.28,1.81s0.83,1.24,1.22,1.85c0.39,0.61,0.75,1.18,1.06,1.71H66.69z
		 M56.35,101.77c-0.25-0.63-0.59-1.16-1.01-1.59c-0.42-0.43-0.92-0.75-1.49-0.97c-0.57-0.22-1.17-0.32-1.81-0.32
		c-0.64,0-1.24,0.11-1.81,0.32c-0.57,0.21-1.07,0.54-1.51,0.97c-0.43,0.43-0.78,0.96-1.03,1.59s-0.38,1.36-0.38,2.19
		c0,0.83,0.13,1.56,0.38,2.2s0.59,1.16,1.01,1.59c0.42,0.43,0.92,0.74,1.5,0.96c0.57,0.22,1.18,0.32,1.83,0.32
		c0.64,0,1.25-0.11,1.82-0.32c0.57-0.21,1.07-0.53,1.49-0.96c0.43-0.42,0.76-0.95,1.01-1.59c0.25-0.64,0.37-1.37,0.37-2.2
		C56.73,103.13,56.6,102.4,56.35,101.77 M49.35,102.52c0.13-0.43,0.32-0.8,0.57-1.11c0.25-0.31,0.55-0.55,0.9-0.71
		s0.76-0.25,1.2-0.25c0.44,0,0.83,0.08,1.19,0.25s0.66,0.4,0.9,0.71c0.25,0.3,0.44,0.67,0.57,1.11c0.13,0.43,0.2,0.92,0.2,1.45
		c0,0.53-0.07,1.01-0.2,1.45c-0.13,0.43-0.32,0.8-0.57,1.11c-0.25,0.3-0.55,0.54-0.9,0.71c-0.35,0.17-0.75,0.25-1.19,0.25
		c-0.45,0-0.85-0.08-1.2-0.25c-0.35-0.17-0.66-0.4-0.9-0.71c-0.25-0.3-0.44-0.67-0.57-1.11c-0.13-0.43-0.2-0.92-0.2-1.45
		C49.15,103.43,49.22,102.95,49.35,102.52 M46.91,108.82c-0.3-0.49-0.63-0.97-0.99-1.46c-0.36-0.49-0.74-0.96-1.13-1.41
		c-0.39-0.45-0.79-0.88-1.2-1.27c-0.41-0.4-0.8-0.74-1.2-1.04c0.35-0.34,0.72-0.71,1.08-1.09c0.37-0.38,0.74-0.77,1.1-1.15
		c0.36-0.39,0.72-0.77,1.06-1.15c0.35-0.38,0.67-0.75,0.98-1.11h-2.11c-0.24,0.27-0.51,0.57-0.81,0.91
		c-0.3,0.34-0.61,0.68-0.94,1.04c-0.33,0.36-0.67,0.71-1,1.06s-0.66,0.68-0.97,0.99v-4h-1.76v9.7h1.76v-4.35
		c0.36,0.25,0.73,0.55,1.11,0.9c0.37,0.35,0.74,0.71,1.08,1.09c0.35,0.38,0.68,0.78,1,1.19c0.32,0.41,0.6,0.8,0.84,1.18H46.91z
		 M32.35,107.51c-0.18,0.25-0.43,0.37-0.75,0.37c-0.32,0-0.57-0.12-0.74-0.37c-0.18-0.25-0.27-0.62-0.27-1.11s0.09-0.87,0.27-1.11
		c0.18-0.25,0.42-0.37,0.74-0.37c0.32,0,0.57,0.12,0.75,0.37c0.18,0.25,0.27,0.62,0.27,1.11S32.53,107.27,32.35,107.51 M33.3,104.43
		c-0.43-0.45-1-0.68-1.7-0.68s-1.27,0.23-1.7,0.68c-0.43,0.45-0.65,1.11-0.65,1.97c0,0.42,0.06,0.8,0.17,1.13
		c0.12,0.33,0.28,0.61,0.48,0.83c0.2,0.22,0.45,0.39,0.74,0.51c0.29,0.12,0.61,0.17,0.95,0.17c0.7,0,1.27-0.23,1.7-0.69
		s0.65-1.11,0.65-1.96C33.95,105.54,33.73,104.89,33.3,104.43 M24.78,108.82h1.61l5.47-9.7h-1.61L24.78,108.82z M25.81,102.67
		c-0.18,0.25-0.43,0.37-0.75,0.37c-0.32,0-0.57-0.12-0.74-0.37c-0.18-0.25-0.27-0.62-0.27-1.11c0-0.49,0.09-0.87,0.27-1.11
		c0.18-0.25,0.42-0.37,0.74-0.37c0.32,0,0.57,0.12,0.75,0.37s0.27,0.62,0.27,1.11C26.08,102.05,25.99,102.42,25.81,102.67
		 M26.76,99.59c-0.43-0.45-1-0.68-1.7-0.68c-0.7,0-1.27,0.23-1.7,0.68c-0.43,0.45-0.65,1.11-0.65,1.97c0,0.42,0.06,0.8,0.17,1.13
		c0.12,0.33,0.28,0.61,0.48,0.83c0.2,0.22,0.45,0.39,0.74,0.51c0.29,0.12,0.61,0.18,0.95,0.18c0.7,0,1.27-0.23,1.7-0.69
		s0.65-1.11,0.65-1.96C27.41,100.7,27.19,100.04,26.76,99.59 M16.35,105.38c-0.06,0.44-0.15,0.82-0.27,1.14
		c-0.13,0.32-0.29,0.58-0.5,0.76c-0.2,0.19-0.46,0.28-0.77,0.28c-0.31,0-0.57-0.09-0.78-0.28c-0.21-0.19-0.38-0.44-0.5-0.76
		c-0.13-0.32-0.22-0.7-0.27-1.14c-0.05-0.44-0.08-0.91-0.08-1.41c0-0.5,0.03-0.98,0.08-1.41c0.05-0.44,0.14-0.82,0.27-1.14
		c0.13-0.32,0.29-0.58,0.5-0.76c0.21-0.19,0.47-0.28,0.78-0.28c0.31,0,0.56,0.09,0.77,0.28c0.2,0.19,0.37,0.44,0.5,0.76
		c0.13,0.32,0.22,0.7,0.27,1.14c0.06,0.44,0.08,0.91,0.08,1.41C16.43,104.47,16.41,104.94,16.35,105.38 M17.29,100.2
		c-0.6-0.87-1.42-1.31-2.48-1.31c-0.52,0-0.99,0.11-1.41,0.34s-0.77,0.55-1.06,0.98c-0.29,0.43-0.52,0.96-0.67,1.59
		c-0.15,0.63-0.23,1.35-0.23,2.16c0,1.63,0.3,2.89,0.9,3.76s1.42,1.31,2.48,1.31s1.88-0.44,2.48-1.31c0.6-0.87,0.9-2.13,0.9-3.76
		C18.18,102.33,17.89,101.08,17.29,100.2"/>
</g>
</svg>
