<?xml version="1.0" encoding="utf-8"?>
<!-- Generator: Adobe Illustrator 24.3.0, SVG Export Plug-In . SVG Version: 6.00 Build 0)  -->
<svg version="1.1" id="Ebene_1" xmlns="http://www.w3.org/2000/svg" xmlns:xlink="http://www.w3.org/1999/xlink" x="0px" y="0px"
	 viewBox="0 0 130 130" style="enable-background:new 0 0 130 130;" xml:space="preserve">
<style type="text/css">
	.st0{clip-path:url(#SVGID_2_);fill:#327C5E;}
	.st1{clip-path:url(#SVGID_2_);fill:#3C3C3B;}
	.st2{clip-path:url(#SVGID_2_);fill:none;stroke:#327C5E;stroke-width:3;}
	.st3{fill:#327C5E;}
	.st4{clip-path:url(#SVGID_4_);fill:#327C5E;}
	.st5{clip-path:url(#SVGID_6_);fill:#327C5E;}
	.st6{clip-path:url(#SVGID_6_);fill:#3C3C3B;}
	.st7{clip-path:url(#SVGID_8_);fill:#327C5E;}
	.st8{clip-path:url(#SVGID_8_);fill:#3C3C3B;}
	.st9{clip-path:url(#SVGID_10_);fill:#327C5E;}
	.st10{clip-path:url(#SVGID_10_);fill:#3C3C3B;}
	.st11{clip-path:url(#SVGID_12_);fill:none;stroke:#327C5E;stroke-width:3;}
	.st12{clip-path:url(#SVGID_12_);fill:#3C3C3B;}
	.st13{clip-path:url(#SVGID_14_);fill:#327C5E;}
	.st14{clip-path:url(#SVGID_16_);fill:#327C5E;}
	.st15{clip-path:url(#SVGID_16_);fill:#3C3C3B;}
</style>
<g>
	<defs>
		<rect id="SVGID_11_" x="17.09" y="-0.01" width="88.71" height="129.85"/>
	</defs>
	<clipPath id="SVGID_2_">
		<use xlink:href="#SVGID_11_"  style="overflow:visible;"/>
	</clipPath>
	<path class="st2" d="M42.23,37.97L42.23,37.97v39.61c0,2.13,9.52,3.86,21.26,3.86s21.26-1.73,21.26-3.86V37.97
		c0,2.13-9.52,3.86-21.26,3.86S42.23,40.1,42.23,37.97z"/>
	<path class="st2" d="M63.49,41.83c11.74,0,21.26-1.73,21.26-3.86c0-2.13-9.52-3.86-21.26-3.86s-21.26,1.73-21.26,3.86
		C42.23,40.1,51.75,41.83,63.49,41.83z"/>
	<path class="st2" d="M38.59,18.74L38.59,18.74l2.69,6.67c0.8,1.97,10.27,0.01,21.16-4.39c10.89-4.4,19.06-9.56,18.27-11.54
		l-2.69-6.67c0.8,1.97-7.38,7.14-18.27,11.54C48.86,18.75,39.39,20.71,38.59,18.74z"/>
	<path class="st2" d="M59.47,13.83C70.41,9.41,78.64,4.22,77.84,2.25c-0.8-1.97-10.31,0.01-21.25,4.43
		c-10.94,4.42-19.16,9.61-18.36,11.58C39.02,20.23,48.53,18.25,59.47,13.83z"/>
	<path class="st1" d="M101.96,121.42c0.29,0.05,0.54,0.14,0.75,0.26c0.21,0.12,0.37,0.29,0.48,0.49c0.11,0.21,0.17,0.46,0.17,0.76
		c0,0.32-0.06,0.58-0.17,0.79c-0.11,0.21-0.28,0.37-0.5,0.49c-0.22,0.12-0.49,0.21-0.82,0.25c-0.33,0.05-0.71,0.07-1.14,0.07h-0.77
		v-3.14c0.32-0.03,0.66-0.04,1.04-0.04C101.35,121.34,101.67,121.36,101.96,121.42 M99.57,119.86c-0.49,0.03-0.94,0.1-1.38,0.19
		v9.58h1.77v-3.67h0.85h0.27c0.09,0,0.2,0,0.34-0.01c0.18,0.22,0.37,0.48,0.57,0.76c0.21,0.29,0.41,0.59,0.62,0.91
		c0.21,0.32,0.42,0.66,0.62,1c0.21,0.34,0.4,0.68,0.57,1.02h1.98c-0.17-0.36-0.36-0.74-0.58-1.11c-0.21-0.38-0.44-0.75-0.67-1.11
		c-0.23-0.36-0.46-0.69-0.69-1c-0.22-0.31-0.42-0.57-0.6-0.79c1.3-0.47,1.95-1.36,1.95-2.68c0-1.06-0.37-1.84-1.11-2.36
		c-0.74-0.51-1.82-0.77-3.22-0.77C100.49,119.81,100.06,119.83,99.57,119.86 M92.93,123.58c0.28,0.72,0.57,1.5,0.87,2.33h-3.2
		c0.3-0.83,0.59-1.6,0.86-2.31c0.28-0.71,0.52-1.31,0.74-1.81C92.41,122.26,92.65,122.86,92.93,123.58 M96.98,129.63
		c-0.37-1.04-0.71-2-1.05-2.87c-0.33-0.88-0.65-1.71-0.97-2.5c-0.31-0.78-0.62-1.53-0.93-2.24c-0.31-0.71-0.63-1.41-0.95-2.1h-1.69
		c-0.33,0.69-0.65,1.39-0.95,2.1c-0.31,0.71-0.62,1.46-0.93,2.24c-0.31,0.79-0.63,1.62-0.96,2.5c-0.33,0.88-0.67,1.84-1.04,2.87
		h1.84c0.13-0.37,0.26-0.75,0.4-1.13c0.14-0.38,0.27-0.76,0.4-1.16h4.11c0.13,0.39,0.27,0.78,0.41,1.15
		c0.14,0.37,0.28,0.75,0.41,1.14H96.98z M81.13,121.31c0.15-0.02,0.33-0.03,0.54-0.04c0.21-0.01,0.45-0.01,0.72-0.01
		c0.64,0,1.15,0.1,1.55,0.29c0.4,0.2,0.6,0.53,0.6,1c0,0.5-0.19,0.84-0.57,1.03c-0.38,0.19-0.91,0.29-1.58,0.29h-1.25V121.31z
		 M82.69,125.25c0.71,0,1.27,0.11,1.67,0.32c0.4,0.22,0.6,0.6,0.6,1.15c0,0.31-0.07,0.56-0.2,0.76c-0.14,0.2-0.32,0.35-0.55,0.47
		c-0.23,0.12-0.5,0.2-0.81,0.24c-0.31,0.05-0.65,0.07-1.02,0.07c-0.19,0-0.39,0-0.62-0.01c-0.22-0.01-0.43-0.02-0.63-0.04v-2.96
		H82.69z M85.67,128.99c0.73-0.5,1.09-1.25,1.09-2.25c0-0.59-0.14-1.08-0.42-1.46c-0.28-0.38-0.72-0.67-1.31-0.87
		c0.39-0.2,0.7-0.46,0.92-0.78c0.22-0.33,0.33-0.72,0.33-1.18c0-0.5-0.1-0.91-0.31-1.25c-0.21-0.34-0.49-0.61-0.86-0.81
		c-0.37-0.2-0.81-0.35-1.31-0.44c-0.5-0.09-1.05-0.13-1.64-0.13c-0.22,0-0.44,0-0.68,0.01c-0.24,0.01-0.48,0.02-0.72,0.04
		c-0.24,0.02-0.48,0.04-0.72,0.08c-0.23,0.03-0.45,0.07-0.66,0.1v9.44c0.39,0.1,0.85,0.17,1.38,0.2c0.52,0.03,1.04,0.05,1.56,0.05
		C83.83,129.74,84.94,129.49,85.67,128.99 M72.62,128.1c-0.43-0.14-0.77-0.28-1.02-0.42l-0.52,1.45c0.11,0.07,0.26,0.14,0.45,0.22
		c0.19,0.08,0.41,0.16,0.67,0.23c0.26,0.07,0.55,0.14,0.88,0.19c0.33,0.05,0.7,0.08,1.1,0.08c1.2,0,2.11-0.24,2.73-0.72
		c0.62-0.48,0.93-1.16,0.93-2.04c0-0.46-0.07-0.85-0.2-1.17c-0.13-0.32-0.32-0.6-0.57-0.84c-0.25-0.24-0.55-0.44-0.91-0.62
		c-0.36-0.17-0.77-0.34-1.23-0.51c-0.26-0.09-0.5-0.19-0.72-0.29c-0.22-0.1-0.41-0.22-0.57-0.34c-0.16-0.12-0.29-0.26-0.38-0.41
		c-0.09-0.15-0.13-0.34-0.13-0.55c0-0.36,0.13-0.63,0.4-0.83c0.27-0.2,0.64-0.29,1.11-0.29c0.4,0,0.79,0.05,1.17,0.14
		c0.38,0.09,0.73,0.23,1.04,0.41l0.55-1.43c-0.27-0.16-0.64-0.31-1.12-0.44c-0.47-0.14-1.01-0.2-1.62-0.2
		c-1.05,0-1.88,0.25-2.48,0.75c-0.61,0.5-0.91,1.19-0.91,2.07c0,0.42,0.07,0.78,0.22,1.08c0.15,0.3,0.34,0.56,0.57,0.77
		c0.24,0.22,0.51,0.4,0.83,0.54c0.31,0.14,0.64,0.28,0.97,0.4c0.34,0.11,0.64,0.23,0.9,0.34c0.26,0.12,0.48,0.24,0.67,0.38
		c0.18,0.14,0.32,0.29,0.42,0.46s0.15,0.37,0.15,0.6c0,0.39-0.15,0.7-0.44,0.91c-0.29,0.21-0.75,0.32-1.39,0.32
		C73.56,128.31,73.05,128.24,72.62,128.1 M65.04,128.1c-0.43-0.14-0.77-0.28-1.02-0.42l-0.52,1.45c0.11,0.07,0.26,0.14,0.45,0.22
		c0.19,0.08,0.41,0.16,0.67,0.23c0.26,0.07,0.55,0.14,0.88,0.19c0.33,0.05,0.7,0.08,1.1,0.08c1.2,0,2.11-0.24,2.73-0.72
		c0.62-0.48,0.93-1.16,0.93-2.04c0-0.46-0.07-0.85-0.2-1.17c-0.13-0.32-0.32-0.6-0.57-0.84c-0.25-0.24-0.55-0.44-0.91-0.62
		c-0.36-0.17-0.77-0.34-1.23-0.51c-0.26-0.09-0.5-0.19-0.72-0.29c-0.22-0.1-0.41-0.22-0.58-0.34c-0.16-0.12-0.29-0.26-0.38-0.41
		c-0.09-0.15-0.13-0.34-0.13-0.55c0-0.36,0.13-0.63,0.4-0.83c0.27-0.2,0.64-0.29,1.11-0.29c0.4,0,0.79,0.05,1.17,0.14
		c0.38,0.09,0.73,0.23,1.04,0.41l0.55-1.43c-0.27-0.16-0.64-0.31-1.11-0.44c-0.47-0.14-1.01-0.2-1.62-0.2
		c-1.05,0-1.87,0.25-2.48,0.75c-0.61,0.5-0.91,1.19-0.91,2.07c0,0.42,0.07,0.78,0.22,1.08c0.15,0.3,0.34,0.56,0.58,0.77
		c0.24,0.22,0.51,0.4,0.83,0.54c0.31,0.14,0.64,0.28,0.97,0.4c0.34,0.11,0.64,0.23,0.9,0.34c0.26,0.12,0.48,0.24,0.67,0.38
		c0.18,0.14,0.32,0.29,0.42,0.46c0.1,0.17,0.15,0.37,0.15,0.6c0,0.39-0.14,0.7-0.43,0.91c-0.29,0.21-0.75,0.32-1.39,0.32
		C65.99,128.31,65.47,128.24,65.04,128.1 M62.6,129.63v-1.5h-4.81v-2.85h3.98v-1.47h-3.98v-2.4h4.47v-1.5h-6.24v9.72H62.6z
		 M51.93,129.63h1.77v-9.72h-1.77V129.63z M46.21,128.1v-8.19h-1.77v9.72h6.14v-1.53H46.21z M40.34,123.79h-4.22v-3.89h-1.77v9.72
		h1.77v-4.31h4.22v4.31h1.77v-9.72h-1.77V123.79z M30.78,129.77c0.33-0.04,0.62-0.1,0.88-0.17c0.26-0.07,0.49-0.14,0.68-0.22
		c0.19-0.07,0.34-0.15,0.46-0.22l-0.48-1.44c-0.22,0.11-0.52,0.23-0.91,0.36c-0.39,0.13-0.9,0.19-1.53,0.19
		c-0.52,0-0.97-0.09-1.35-0.26c-0.37-0.17-0.68-0.42-0.92-0.73c-0.24-0.31-0.42-0.69-0.54-1.12c-0.12-0.43-0.17-0.9-0.17-1.42
		c0-0.58,0.07-1.09,0.22-1.53c0.15-0.44,0.36-0.8,0.62-1.09c0.27-0.29,0.58-0.51,0.95-0.65c0.36-0.15,0.76-0.22,1.18-0.22
		c0.49,0,0.94,0.06,1.35,0.19s0.74,0.26,0.96,0.4l0.52-1.44c-0.07-0.04-0.18-0.1-0.34-0.18s-0.36-0.16-0.6-0.24
		c-0.24-0.07-0.53-0.14-0.85-0.2c-0.33-0.06-0.69-0.09-1.09-0.09c-0.66,0-1.29,0.11-1.87,0.34c-0.58,0.22-1.08,0.55-1.51,0.99
		c-0.43,0.44-0.77,0.97-1.02,1.59c-0.25,0.63-0.37,1.35-0.37,2.16c0,0.81,0.11,1.53,0.32,2.16c0.22,0.63,0.52,1.16,0.93,1.59
		c0.4,0.43,0.89,0.76,1.47,0.99c0.58,0.23,1.23,0.34,1.96,0.34C30.1,129.84,30.45,129.82,30.78,129.77 M18.63,128.1
		c-0.43-0.14-0.77-0.28-1.02-0.42l-0.52,1.45c0.11,0.07,0.26,0.14,0.45,0.22c0.19,0.08,0.41,0.16,0.67,0.23
		c0.26,0.07,0.55,0.14,0.88,0.19c0.33,0.05,0.7,0.08,1.1,0.08c1.2,0,2.11-0.24,2.73-0.72c0.62-0.48,0.93-1.16,0.93-2.04
		c0-0.46-0.06-0.85-0.2-1.17c-0.13-0.32-0.32-0.6-0.57-0.84c-0.25-0.24-0.55-0.44-0.91-0.62c-0.36-0.17-0.77-0.34-1.23-0.51
		c-0.26-0.09-0.5-0.19-0.72-0.29c-0.22-0.1-0.41-0.22-0.57-0.34c-0.16-0.12-0.29-0.26-0.38-0.41c-0.09-0.15-0.13-0.34-0.13-0.55
		c0-0.36,0.13-0.63,0.4-0.83c0.27-0.2,0.64-0.29,1.11-0.29c0.4,0,0.79,0.05,1.17,0.14c0.38,0.09,0.73,0.23,1.05,0.41l0.55-1.43
		c-0.27-0.16-0.64-0.31-1.11-0.44c-0.47-0.14-1.01-0.2-1.62-0.2c-1.05,0-1.88,0.25-2.48,0.75c-0.61,0.5-0.91,1.19-0.91,2.07
		c0,0.42,0.07,0.78,0.22,1.08c0.15,0.3,0.34,0.56,0.57,0.77c0.24,0.22,0.51,0.4,0.83,0.54c0.31,0.14,0.64,0.28,0.97,0.4
		c0.34,0.11,0.64,0.23,0.9,0.34c0.26,0.12,0.48,0.24,0.67,0.38c0.18,0.14,0.32,0.29,0.42,0.46s0.15,0.37,0.15,0.6
		c0,0.39-0.14,0.7-0.43,0.91c-0.29,0.21-0.75,0.32-1.39,0.32C19.58,128.31,19.06,128.24,18.63,128.1"/>
	<path class="st1" d="M99.2,112.38h3.77v-1.56H99.2V112.38z M94.82,107.39c0.29,0.05,0.54,0.14,0.75,0.26
		c0.21,0.12,0.37,0.29,0.48,0.49c0.11,0.21,0.17,0.46,0.17,0.76c0,0.32-0.06,0.58-0.17,0.79c-0.11,0.21-0.28,0.37-0.5,0.49
		c-0.22,0.12-0.49,0.21-0.82,0.25c-0.33,0.05-0.71,0.07-1.14,0.07h-0.77v-3.14c0.32-0.03,0.66-0.04,1.04-0.04
		C94.22,107.31,94.53,107.34,94.82,107.39 M92.44,105.83c-0.49,0.03-0.94,0.1-1.37,0.19v9.58h1.77v-3.67h0.86h0.27
		c0.09,0,0.21,0,0.34-0.01c0.18,0.22,0.37,0.48,0.58,0.76c0.21,0.29,0.41,0.59,0.62,0.91c0.21,0.32,0.42,0.65,0.62,1
		c0.21,0.34,0.4,0.68,0.58,1.02h1.98c-0.17-0.36-0.36-0.74-0.57-1.12c-0.22-0.38-0.44-0.75-0.67-1.11c-0.23-0.36-0.46-0.69-0.69-1
		c-0.22-0.31-0.43-0.57-0.6-0.79c1.3-0.47,1.95-1.36,1.95-2.68c0-1.06-0.37-1.84-1.11-2.36c-0.74-0.51-1.82-0.77-3.22-0.77
		C93.36,105.79,92.93,105.8,92.44,105.83 M89.43,115.6v-1.5h-4.81v-2.85h3.98v-1.47h-3.98v-2.4h4.47v-1.5h-6.24v9.72H89.43z
		 M77.74,115.6c0.7-1.51,1.38-3.1,2.03-4.75c0.65-1.65,1.26-3.31,1.83-4.96h-1.89c-0.22,0.65-0.44,1.32-0.68,2.01
		c-0.24,0.68-0.47,1.36-0.71,2.02c-0.24,0.66-0.48,1.3-0.71,1.92c-0.24,0.61-0.46,1.17-0.68,1.69c-0.22-0.51-0.45-1.08-0.69-1.7
		c-0.24-0.62-0.47-1.26-0.7-1.92c-0.24-0.66-0.47-1.33-0.7-2.01c-0.24-0.68-0.47-1.35-0.69-2.01H72.2c0.56,1.65,1.17,3.31,1.82,4.96
		c0.65,1.66,1.33,3.24,2.03,4.75H77.74z M68.18,107.39c0.29,0.05,0.54,0.14,0.75,0.26c0.21,0.12,0.37,0.29,0.48,0.49
		c0.11,0.21,0.17,0.46,0.17,0.76c0,0.32-0.06,0.58-0.17,0.79c-0.11,0.21-0.28,0.37-0.5,0.49c-0.22,0.12-0.49,0.21-0.82,0.25
		c-0.33,0.05-0.71,0.07-1.14,0.07h-0.77v-3.14c0.32-0.03,0.66-0.04,1.04-0.04C67.57,107.31,67.89,107.34,68.18,107.39 M65.79,105.83
		c-0.49,0.03-0.94,0.1-1.38,0.19v9.58h1.77v-3.67h0.86h0.27c0.09,0,0.21,0,0.34-0.01c0.18,0.22,0.37,0.48,0.58,0.76
		c0.2,0.29,0.41,0.59,0.62,0.91c0.21,0.32,0.42,0.65,0.62,1c0.21,0.34,0.4,0.68,0.57,1.02h1.98c-0.17-0.36-0.36-0.74-0.57-1.12
		c-0.22-0.38-0.44-0.75-0.67-1.11c-0.23-0.36-0.46-0.69-0.69-1c-0.22-0.31-0.43-0.57-0.6-0.79c1.3-0.47,1.95-1.36,1.95-2.68
		c0-1.06-0.37-1.84-1.11-2.36c-0.74-0.51-1.82-0.77-3.22-0.77C66.71,105.79,66.28,105.8,65.79,105.83 M62.78,115.6v-1.5h-4.81v-2.85
		h3.98v-1.47h-3.98v-2.4h4.47v-1.5H56.2v9.72H62.78z M53.87,108.51c-0.26-0.62-0.63-1.14-1.12-1.54c-0.48-0.41-1.06-0.71-1.73-0.9
		c-0.67-0.19-1.42-0.29-2.23-0.29c-0.39,0-0.84,0.01-1.35,0.04s-0.98,0.09-1.43,0.2v9.44c0.45,0.1,0.92,0.17,1.42,0.2
		c0.5,0.03,0.94,0.05,1.33,0.05c0.82,0,1.57-0.1,2.25-0.3c0.68-0.2,1.26-0.51,1.74-0.93c0.48-0.42,0.85-0.93,1.12-1.56
		c0.26-0.62,0.39-1.35,0.39-2.19C54.26,109.88,54.13,109.14,53.87,108.51 M47.79,107.36c0.22-0.03,0.6-0.04,1.12-0.04
		c1.2,0,2.08,0.29,2.65,0.88c0.57,0.59,0.86,1.44,0.86,2.54c0,1.08-0.29,1.93-0.88,2.53c-0.58,0.6-1.47,0.9-2.66,0.9
		c-0.29,0-0.52,0-0.69-0.01c-0.17,0-0.3-0.01-0.41-0.02V107.36z M44.38,115.6v-1.5h-4.81v-2.85h3.98v-1.47h-3.98v-2.4h4.47v-1.5
		H37.8v9.72H44.38z M33.7,115.6h1.77v-9.72H33.7V115.6z M25.26,106.98c-0.14,0.5-0.29,1.03-0.46,1.57
		c-0.16,0.54-0.33,1.09-0.51,1.63c-0.18,0.55-0.36,1.08-0.54,1.61c-0.18,0.53-0.36,1.03-0.54,1.51c-0.14-0.5-0.28-1.06-0.42-1.65
		c-0.14-0.6-0.28-1.22-0.41-1.86c-0.14-0.64-0.27-1.29-0.39-1.96c-0.13-0.66-0.25-1.31-0.36-1.95h-1.89
		c0.33,1.76,0.69,3.45,1.08,5.07c0.4,1.62,0.85,3.17,1.35,4.65h1.69c0.36-0.95,0.71-1.94,1.07-2.96c0.36-1.02,0.71-2.09,1.05-3.23
		c0.68,2.24,1.38,4.3,2.1,6.19h1.7c0.49-1.48,0.94-3.03,1.34-4.65c0.4-1.62,0.77-3.31,1.09-5.07h-1.82
		c-0.11,0.64-0.23,1.3-0.36,1.96c-0.13,0.66-0.25,1.32-0.39,1.96c-0.13,0.64-0.26,1.26-0.39,1.85c-0.13,0.59-0.27,1.14-0.41,1.65
		c-0.17-0.47-0.34-0.96-0.53-1.49c-0.18-0.53-0.36-1.07-0.55-1.61c-0.18-0.55-0.36-1.09-0.52-1.64c-0.17-0.55-0.33-1.07-0.48-1.58
		H25.26z"/>
</g>
</svg>
