<?xml version="1.0" encoding="utf-8"?>
<!-- Generator: Adobe Illustrator 24.3.0, SVG Export Plug-In . SVG Version: 6.00 Build 0)  -->
<svg version="1.1" id="Ebene_1" xmlns="http://www.w3.org/2000/svg" xmlns:xlink="http://www.w3.org/1999/xlink" x="0px" y="0px"
	 viewBox="0 0 130 130" style="enable-background:new 0 0 130 130;" xml:space="preserve">
<style type="text/css">
	.st0{clip-path:url(#SVGID_2_);fill:#327C5E;}
	.st1{clip-path:url(#SVGID_2_);fill:none;stroke:#FFFFFF;stroke-width:1.7;stroke-miterlimit:10;}
	.st2{clip-path:url(#SVGID_2_);fill:#3C3C3B;}
</style>
<g>
	<defs>
		<rect id="SVGID_1_" x="24.32" y="7.14" width="81.37" height="113.72"/>
	</defs>
	<clipPath id="SVGID_2_">
		<use xlink:href="#SVGID_1_"  style="overflow:visible;"/>
	</clipPath>
	<path class="st0" d="M67.66,47.83h7.97c16.11,0,29.21-13.11,29.21-29.21v-2.66c0-1.47-1.19-2.65-2.66-2.65H91.56
		c-10.86,0-20.34,5.97-25.37,14.79c-3.84-11.66-14.81-20.1-27.74-20.1H27.82c-1.47,0-2.66,1.19-2.66,2.65v2.66
		c0,16.11,13.1,29.21,29.21,29.21h7.97c0,4.11-0.18,19.13-0.18,24.68c0,1.19,0,3.7,2.84,3.7c2.71,0,2.71-2.74,2.71-3.7
		C67.72,61.64,67.66,47.83,67.66,47.83 M30.48,13.3h7.97c12.18,0,22.25,9.17,23.7,20.97l-19.42-15.1c-2.77-2.16-6.04,2.03-3.26,4.19
		L57.26,37.2h-2.88C41.2,37.2,30.48,26.48,30.48,13.3 M91.56,18.61h7.97c0,13.18-10.72,23.9-23.9,23.9h-2.88l17.79-13.84
		c2.78-2.16-0.5-6.35-3.26-4.19l-19.42,15.1C69.31,27.79,79.37,18.61,91.56,18.61"/>
	<path class="st1" d="M67.66,47.83h7.97c16.11,0,29.21-13.11,29.21-29.21v-2.66c0-1.47-1.19-2.65-2.66-2.65H91.56
		c-10.86,0-20.34,5.97-25.37,14.79c-3.84-11.66-14.81-20.1-27.74-20.1H27.82c-1.47,0-2.66,1.19-2.66,2.65v2.66
		c0,16.11,13.1,29.21,29.21,29.21h7.97c0,4.11-0.18,19.13-0.18,24.68c0,1.19,0,3.7,2.84,3.7c2.71,0,2.71-2.74,2.71-3.7
		C67.72,61.64,67.66,47.83,67.66,47.83z M30.48,13.3h7.97c12.18,0,22.25,9.17,23.7,20.97l-19.42-15.1
		c-2.77-2.16-6.04,2.03-3.26,4.19L57.26,37.2h-2.88C41.2,37.2,30.48,26.48,30.48,13.3z M91.56,18.61h7.97
		c0,13.18-10.72,23.9-23.9,23.9h-2.88l17.79-13.84c2.78-2.16-0.5-6.35-3.26-4.19l-19.42,15.1C69.31,27.79,79.37,18.61,91.56,18.61z"
		/>
	<path class="st2" d="M87.83,120.66v-9.7h-1.75v6.44c-0.32-0.5-0.68-1.05-1.08-1.63s-0.83-1.16-1.26-1.74
		c-0.43-0.58-0.87-1.14-1.29-1.67c-0.43-0.54-0.83-1-1.2-1.39h-1.44v9.7h1.74v-6.94c0.39,0.47,0.8,0.99,1.24,1.57
		c0.43,0.58,0.86,1.19,1.28,1.81c0.42,0.62,0.83,1.24,1.22,1.85c0.39,0.61,0.75,1.18,1.06,1.72H87.83z M74.53,114.63
		c0.28,0.72,0.57,1.49,0.87,2.32h-3.19c0.3-0.83,0.59-1.6,0.86-2.31c0.28-0.71,0.52-1.31,0.73-1.81
		C74.01,113.31,74.25,113.91,74.53,114.63 M78.57,120.66c-0.36-1.04-0.71-1.99-1.04-2.87c-0.33-0.88-0.65-1.71-0.97-2.49
		c-0.31-0.78-0.62-1.53-0.93-2.24s-0.63-1.41-0.95-2.1H73c-0.33,0.69-0.64,1.39-0.95,2.1c-0.31,0.71-0.62,1.46-0.93,2.24
		c-0.31,0.78-0.63,1.61-0.96,2.49c-0.33,0.88-0.67,1.83-1.04,2.87h1.83c0.13-0.37,0.26-0.75,0.4-1.13c0.14-0.38,0.27-0.76,0.4-1.15
		h4.1c0.13,0.39,0.27,0.77,0.41,1.15c0.14,0.37,0.28,0.75,0.41,1.13H78.57z M66.5,112.47c0.42,0.12,0.76,0.26,1.04,0.43l0.53-1.44
		c-0.07-0.04-0.18-0.1-0.34-0.18c-0.16-0.08-0.37-0.16-0.62-0.24c-0.25-0.07-0.55-0.14-0.9-0.2c-0.35-0.06-0.75-0.09-1.2-0.09
		c-0.65,0-1.27,0.11-1.85,0.34c-0.58,0.22-1.08,0.55-1.51,0.99c-0.43,0.43-0.77,0.96-1.01,1.59c-0.25,0.62-0.37,1.34-0.37,2.16
		c0,0.81,0.11,1.53,0.34,2.16s0.54,1.15,0.94,1.58c0.41,0.43,0.9,0.76,1.48,0.98c0.58,0.22,1.22,0.34,1.92,0.34
		c0.76,0,1.42-0.06,2-0.17c0.58-0.11,0.99-0.22,1.23-0.31v-4.66h-1.76v3.49c-0.13,0.04-0.31,0.07-0.53,0.09
		c-0.22,0.02-0.49,0.03-0.8,0.03c-0.49,0-0.93-0.09-1.3-0.26c-0.37-0.17-0.68-0.41-0.92-0.72c-0.25-0.31-0.43-0.68-0.56-1.11
		c-0.13-0.43-0.19-0.91-0.19-1.43c0-1.1,0.26-1.96,0.79-2.58c0.53-0.62,1.29-0.93,2.29-0.93C65.65,112.29,66.08,112.35,66.5,112.47
		 M59.37,120.66v-1.5h-4.8v-2.84h3.98v-1.47h-3.98v-2.39h4.47v-1.5H52.8v9.7H59.37z M47.7,120.66c0.7-1.51,1.38-3.09,2.02-4.75
		c0.65-1.65,1.26-3.3,1.83-4.96h-1.89c-0.22,0.65-0.44,1.32-0.67,2c-0.23,0.68-0.47,1.35-0.71,2.02c-0.24,0.66-0.47,1.3-0.71,1.91
		s-0.46,1.17-0.67,1.69c-0.22-0.51-0.45-1.08-0.69-1.69c-0.23-0.62-0.47-1.25-0.7-1.91c-0.23-0.66-0.47-1.33-0.7-2.01
		s-0.46-1.35-0.69-2h-1.95c0.56,1.65,1.16,3.3,1.81,4.96c0.65,1.65,1.32,3.23,2.02,4.75H47.7z"/>
	<path class="st2" d="M83.11,105.35c-0.18,0.25-0.43,0.37-0.75,0.37c-0.32,0-0.57-0.12-0.74-0.37c-0.18-0.25-0.27-0.62-0.27-1.11
		c0-0.5,0.09-0.87,0.27-1.11c0.18-0.25,0.42-0.37,0.74-0.37c0.32,0,0.57,0.12,0.75,0.37c0.18,0.25,0.27,0.62,0.27,1.11
		C83.38,104.74,83.29,105.11,83.11,105.35 M84.06,102.27c-0.43-0.45-1-0.68-1.7-0.68c-0.7,0-1.27,0.23-1.7,0.68
		c-0.43,0.45-0.65,1.11-0.65,1.97c0,0.42,0.06,0.8,0.18,1.13c0.12,0.33,0.28,0.61,0.48,0.83c0.2,0.22,0.45,0.39,0.74,0.51
		c0.29,0.12,0.61,0.18,0.95,0.18c0.7,0,1.27-0.23,1.7-0.69s0.65-1.11,0.65-1.96C84.71,103.38,84.5,102.73,84.06,102.27
		 M75.54,106.66h1.61l5.47-9.7h-1.61L75.54,106.66z M76.57,100.51c-0.18,0.25-0.43,0.37-0.75,0.37c-0.32,0-0.57-0.12-0.74-0.37
		c-0.18-0.25-0.27-0.62-0.27-1.11c0-0.5,0.09-0.87,0.27-1.11c0.18-0.25,0.42-0.37,0.74-0.37c0.32,0,0.57,0.12,0.75,0.37
		c0.18,0.25,0.27,0.62,0.27,1.11C76.84,99.89,76.75,100.26,76.57,100.51 M77.52,97.43c-0.43-0.45-1-0.68-1.7-0.68
		s-1.27,0.23-1.7,0.68c-0.43,0.45-0.65,1.11-0.65,1.97c0,0.42,0.06,0.8,0.17,1.13c0.12,0.33,0.28,0.61,0.48,0.83
		c0.21,0.22,0.45,0.39,0.74,0.51c0.29,0.12,0.61,0.17,0.95,0.17c0.7,0,1.27-0.23,1.7-0.69c0.43-0.46,0.65-1.11,0.65-1.96
		C78.17,98.54,77.96,97.88,77.52,97.43 M67.11,103.22c-0.06,0.44-0.15,0.82-0.27,1.14c-0.13,0.32-0.29,0.58-0.5,0.76
		c-0.21,0.19-0.46,0.28-0.77,0.28s-0.57-0.09-0.78-0.28s-0.38-0.44-0.5-0.76s-0.21-0.7-0.27-1.14c-0.05-0.44-0.08-0.91-0.08-1.41
		s0.03-0.97,0.08-1.41c0.05-0.44,0.14-0.82,0.27-1.14s0.29-0.58,0.5-0.76c0.21-0.19,0.47-0.28,0.78-0.28s0.56,0.09,0.77,0.28
		c0.2,0.19,0.37,0.44,0.5,0.76c0.13,0.32,0.22,0.7,0.27,1.14c0.06,0.44,0.08,0.91,0.08,1.41S67.17,102.78,67.11,103.22 M68.05,98.05
		c-0.6-0.87-1.42-1.31-2.48-1.31c-0.52,0-0.99,0.11-1.41,0.34c-0.42,0.22-0.77,0.55-1.06,0.98s-0.52,0.96-0.67,1.59
		c-0.15,0.63-0.23,1.35-0.23,2.16c0,1.63,0.3,2.89,0.9,3.76c0.6,0.87,1.42,1.31,2.48,1.31c1.05,0,1.88-0.44,2.48-1.31
		c0.6-0.87,0.9-2.13,0.9-3.76C68.95,100.17,68.65,98.92,68.05,98.05 M59.16,103.22c-0.06,0.44-0.15,0.82-0.27,1.14
		s-0.29,0.58-0.5,0.76c-0.21,0.19-0.46,0.28-0.77,0.28c-0.31,0-0.57-0.09-0.78-0.28s-0.38-0.44-0.5-0.76
		c-0.13-0.32-0.21-0.7-0.27-1.14c-0.05-0.44-0.08-0.91-0.08-1.41s0.03-0.97,0.08-1.41c0.05-0.44,0.14-0.82,0.27-1.14
		c0.13-0.32,0.29-0.58,0.5-0.76c0.21-0.19,0.47-0.28,0.78-0.28c0.31,0,0.56,0.09,0.77,0.28c0.2,0.19,0.37,0.44,0.5,0.76
		s0.22,0.7,0.27,1.14c0.06,0.44,0.08,0.91,0.08,1.41S59.22,102.78,59.16,103.22 M60.1,98.05c-0.6-0.87-1.42-1.31-2.48-1.31
		c-0.52,0-0.99,0.11-1.41,0.34c-0.42,0.22-0.77,0.55-1.06,0.98c-0.29,0.43-0.52,0.96-0.67,1.59c-0.15,0.63-0.23,1.35-0.23,2.16
		c0,1.63,0.3,2.89,0.9,3.76c0.6,0.87,1.42,1.31,2.48,1.31c1.05,0,1.88-0.44,2.48-1.31s0.9-2.13,0.9-3.76
		C61,100.17,60.7,98.92,60.1,98.05 M47.47,100.26c0.35-0.12,0.72-0.28,1.11-0.46s0.7-0.38,0.95-0.57v7.43h1.69v-9.7h-1.19
		c-0.42,0.46-0.9,0.85-1.45,1.19c-0.55,0.34-1.09,0.61-1.63,0.83L47.47,100.26z"/>
</g>
</svg>
